<?xml version="1.0" standalone="no"?>
<svg viewBox="0 0 200 200" xmlns="http://www.w3.org/2000/svg">
  <path fill="#CAF0F8" d="M45.3,-75.7C59.1,-70.5,70.8,-59.1,77.9,-45.4C85,-31.8,87.3,-15.9,87.1,-0.1C86.8,15.6,84,31.2,77,45C70,58.8,58.9,70.9,45.4,77.1C31.9,83.3,15.9,83.7,0.2,83.4C-15.6,83,-31.1,81.9,-44.2,75.5C-57.3,69,-67.8,57.1,-73.4,43.7C-79,30.2,-79.6,15.1,-78.9,0.4C-78.3,-14.3,-76.3,-28.6,-69.7,-40.3C-63,-51.9,-51.6,-60.8,-39.2,-66.7C-26.8,-72.6,-13.4,-75.5,1.2,-77.6C15.8,-79.6,31.5,-80.8,45.3,-75.7Z" transform="translate(100 100)" />
</svg>
