<svg width="49" height="24" viewBox="0 0 49 24" fill="none" xmlns="http://www.w3.org/2000/svg">
<g clip-path="url(#clip0_29_9)">
<path d="M44.9649 9.24503C45.6349 10.655 46.5849 12.395 45.1149 13.635C43.8149 14.735 41.7749 14.345 40.2949 13.895C36.4349 12.735 32.8749 10.575 28.7949 10.165C25.3749 9.82503 21.1349 10.675 20.8549 14.805C20.7249 16.745 21.3949 18.695 22.3349 20.365C23.0349 21.595 24.4549 24.035 26.1249 22.995C26.5649 22.715 26.4849 21.805 26.4549 21.395C26.1949 18.475 24.4249 16.065 21.8249 14.775C18.7849 13.265 15.3649 13.375 12.0649 13.095C9.07494 12.845 5.54494 12.295 3.40494 9.95503C1.82494 8.22503 2.71494 5.93503 4.53494 4.73503C5.54494 4.06503 4.36494 0.305032 3.21494 0.865032C0.444939 2.21503 -0.175064 5.52503 0.314938 8.33503C0.904938 11.675 3.06494 14.315 6.11494 15.745C9.54494 17.345 13.3149 17.205 17.0049 17.535C18.6149 17.685 20.2449 17.915 21.7249 18.585C22.6049 18.985 24.1049 19.735 24.2049 20.825L24.5349 19.225L24.2949 19.375L24.8349 19.235C23.8749 19.205 22.9149 17.115 23.2449 16.225C23.8249 14.675 26.0349 14.305 27.4549 14.205C31.2149 13.945 34.8549 15.665 38.2649 17.005C40.7649 17.985 44.4749 19.465 46.7849 17.255C49.3849 14.775 47.8849 10.385 46.5849 7.65503C46.3249 7.11503 45.7049 6.03503 44.9749 6.58503C44.3149 7.09503 44.6549 8.64503 44.9349 9.23503L44.9649 9.24503Z" fill="white"/>
</g>
<defs>
<clipPath id="clip0_29_9">
<rect width="22.43" height="48.06" fill="white" transform="matrix(0 1 -1 0 48.2449 0.815033)"/>
</clipPath>
</defs>
</svg>
